# xmcd
#
# Track frame offsets:
#	150
#	14539
#	27137
#	38010
#	51087
#	65588
#	77264
#	92040
#	107435
#	122482
#	137122
#	150503
#	163774
#	178038
#	190253
#	205467
#	219778
#	234141
#	246608
#	259033
#
# Disc length: 3662 seconds
#
# Revision: 1
# Processed by: cddbd v1.5.2PL0 Copyright (c) Steve Scherf et al.
# Submitted via: audiograbber 1.83.01
#
DISCID=040e4c14
DTITLE=Various Artist - Classic Love Songs - CD1 - Sentimental Love Songs from the 40s
DTITLE=.
DYEAR=2005
DGENRE=Blues
TTITLE0=Doris Day - Sentimental Journey
TTITLE1=Dick Haymes - Love Letters
TTITLE2=Dinah Shore - You Keep Coming Back Like a Song
TTITLE3=Nat King Cole - For Sentimental Reasons
TTITLE4=Frank Sinatra - But Beautiful
TTITLE5=Frankie Laine - That's My Desire
TTITLE6=Vaughn Monroe - The Very Tought of You
TTITLE7=Glenn Miller - Moonlight Serenade
TTITLE8=Peggy Lee - The Way You Look Tonight
TTITLE9=Dick Haymes and Helen Forrest - It Had to Be You
TTITLE10=Bing Crosby - How Soon (Will I be seeing you)
TTITLE11=Jo Stafford - Long ago and Far Away
TTITLE12=Mel Torme - Blue Moon
TTITLE13=Dick Haymes - You Will Never Know
TTITLE14=Nat King Cole - Emraceable You
TTITLE15=Perry Como - Till The End of Time
TTITLE16=Vaughn Monroe - There! I've Said it Again
TTITLE17=Dooley Wilson - As Time Goes By (from Casablanca)
TTITLE18=Doris Day - Bewitched, Bothered and Bewildered
TTITLE19=Perry Como - Some Enchanted Evening
EXTD=
EXTT0=
EXTT1=
EXTT2=
EXTT3=
EXTT4=
EXTT5=
EXTT6=
EXTT7=
EXTT8=
EXTT9=
EXTT10=
EXTT11=
EXTT12=
EXTT13=
EXTT14=
EXTT15=
EXTT16=
EXTT17=
EXTT18=
EXTT19=
PLAYORDER=
